<svg width="18" height="18" viewBox="0 0 18 18" fill="none" xmlns="http://www.w3.org/2000/svg">
<path d="M8.76655 5.01999C8.72724 5.02667 8.56644 5.05669 8.40921 5.08337C7.19065 5.30352 6.07216 6.09407 5.48611 7.15481C4.37476 9.1662 5.2324 11.5946 7.41221 12.5986C8.40563 13.0556 9.62061 13.1256 10.6605 12.7921C11.4002 12.5519 11.9505 12.215 12.4651 11.6846C12.994 11.1409 13.1012 10.8807 12.9153 10.5872C12.8153 10.4304 12.5937 10.3003 12.4186 10.3003C12.2149 10.3003 12.0327 10.4037 11.8683 10.6139C11.2501 11.4044 10.4354 11.8281 9.43122 11.8881C8.62719 11.9381 7.791 11.6479 7.17636 11.1109C6.62247 10.6239 6.30801 10.0435 6.21152 9.32298C6.14006 8.80929 6.25798 8.17218 6.50098 7.72187C7.05844 6.69115 8.24483 6.03737 9.43122 6.11075C9.90291 6.13744 10.2746 6.23417 10.7105 6.43764C11.025 6.58441 11.1286 6.65446 11.4073 6.91131C11.586 7.07809 11.804 7.29157 11.8933 7.3883C12.0899 7.59511 12.2828 7.66183 12.5151 7.59845C12.8189 7.51506 13.0083 7.20484 12.9296 6.93132C12.8832 6.76787 12.5651 6.39095 12.2007 6.07072C11.5932 5.53368 10.807 5.17343 9.96366 5.04668C9.65277 4.99998 8.94165 4.9833 8.76655 5.01999Z" fill="white"/>
<path d="M8.19351 0.021841C6.4528 0.190874 4.84598 0.831787 3.4365 1.91641C2.74938 2.44464 1.85788 3.4377 1.34342 4.24765C1.12142 4.59628 0.688005 5.48369 0.532961 5.90627C0.360299 6.37816 0.173543 7.10359 0.0819263 7.6635C-0.0273088 8.3502 -0.0273088 9.65316 0.0819263 10.3398C0.240493 11.3118 0.490677 12.0936 0.917046 12.9634C1.38218 13.9107 1.86492 14.5833 2.64014 15.3615C3.41888 16.1362 4.09191 16.6187 5.03979 17.0835C5.91015 17.5096 6.69241 17.7597 7.66495 17.9181C8.35208 18.0273 9.65585 18.0273 10.343 17.9181C11.3155 17.7597 12.0978 17.5096 12.9681 17.0835C13.916 16.6187 14.589 16.1362 15.3678 15.3615C16.143 14.5833 16.6258 13.9107 17.0909 12.9634C17.401 12.333 17.556 11.921 17.7252 11.2871C17.9471 10.442 18 9.98065 18 9.00168C18 8.0227 17.9471 7.56138 17.7252 6.71622C17.556 6.08235 17.401 5.67033 17.0909 5.03998C16.6258 4.0927 16.143 3.42009 15.3678 2.64184C14.589 1.86711 13.916 1.38466 12.9681 0.919825C12.1013 0.493723 11.2979 0.240175 10.3606 0.0922718C9.84261 0.0112762 8.68683 -0.0274601 8.19351 0.021841ZM10.0963 1.24028C11.4071 1.4234 12.6122 1.92345 13.7257 2.74749C14.1556 3.06442 14.9449 3.85324 15.2621 4.28286C16.0901 5.39918 16.5764 6.57536 16.7773 7.92762C16.8583 8.4981 16.8583 9.50525 16.7773 10.0757C16.52 11.8189 15.7801 13.2909 14.5397 14.534C13.2958 15.7735 11.8229 16.513 10.0787 16.7701C9.50785 16.8511 8.50007 16.8511 7.92923 16.7701C6.18499 16.513 4.71208 15.7735 3.46821 14.534C2.22787 13.2909 1.48789 11.8189 1.23066 10.0757C1.14961 9.50525 1.14961 8.4981 1.23066 7.92762C1.48789 6.18447 2.22787 4.71248 3.46821 3.46939C4.6557 2.28265 6.07224 1.55017 7.70019 1.27197C8.44369 1.1452 9.33167 1.13111 10.0963 1.24028Z" fill="white"/>
</svg>
