<svg width="40" height="40" viewBox="0 0 40 40" fill="none" xmlns="http://www.w3.org/2000/svg">
<path d="M18.1112 0.0805817C14.309 0.416958 10.3738 2.02844 7.34618 4.4926C6.45432 5.2123 5.0461 6.63604 4.34199 7.52C2.55043 9.76513 1.07963 12.8004 0.469405 15.5227C0.0860575 17.228 0 18.0651 0 20.0207C0 21.9764 0.0860575 22.8134 0.469405 24.5188C1.08745 27.2959 2.59737 30.378 4.45152 32.6545C5.17128 33.5462 6.59514 34.9543 7.47918 35.6584C9.7245 37.4498 12.76 38.9205 15.4825 39.5306C17.188 39.9139 18.0251 40 19.981 40C21.9368 40 22.774 39.9139 24.4795 39.5306C26.5214 39.0769 29.197 37.9348 30.9572 36.7692C34.0005 34.7431 36.3397 32.0834 37.9436 28.8213C39.2344 26.1851 39.8681 23.674 39.9855 20.7404C40.1654 16.0624 38.6711 11.4861 35.7217 7.66081C35.0645 6.80814 33.1947 4.9385 32.342 4.28139C28.2112 1.09754 23.2355 -0.373138 18.1112 0.0805817ZM22.641 1.51997C23.6815 1.67642 25.1679 2.03627 26.1928 2.38829C27.867 2.96717 30.1123 4.20316 31.5909 5.37658C32.3029 5.93199 34.071 7.69992 34.6264 8.41179C35.7999 9.89029 37.036 12.1354 37.615 13.8095C38.3425 15.9451 38.632 17.6974 38.632 20.0207C38.632 21.9217 38.5147 22.9073 38.0922 24.597C36.4258 31.1994 31.1607 36.4641 24.5577 38.1304C22.8678 38.5528 21.8821 38.6701 19.981 38.6701C17.6574 38.6701 15.905 38.3807 13.7692 37.6532C12.095 37.0743 9.84968 35.8383 8.37105 34.6649C7.65912 34.1095 5.89103 32.3415 5.33557 31.6297C4.16206 30.1512 2.92596 27.9061 2.34702 26.232C1.99497 25.1916 1.63509 23.7209 1.46298 22.6022C1.27522 21.3584 1.27522 18.683 1.46298 17.4392C1.76809 15.4131 2.31573 13.6452 3.19195 11.846C4.1777 9.83553 5.15563 8.46655 6.79072 6.8316C7.94076 5.68948 8.54317 5.18883 9.74797 4.39091C12.228 2.75596 15.1618 1.72336 18.2207 1.41045C19.183 1.30875 21.6396 1.37133 22.641 1.51997Z" fill="#FEC83F"/>
<path d="M10.8667 8.05213C9.79488 8.23205 9.02819 8.72488 8.47272 9.60103C7.94073 10.4381 7.97203 9.84353 7.97203 20.0209C7.97203 28.6103 7.97985 29.2439 8.11285 29.6507C8.44925 30.7146 9.28636 31.5516 10.3503 31.888C10.7572 32.021 11.3909 32.0288 19.981 32.0288C28.5711 32.0288 29.2048 32.021 29.6116 31.888C30.6756 31.5516 31.5127 30.7146 31.8491 29.6507C31.9821 29.2439 31.9899 28.6103 31.9899 20.0209C31.9899 11.4315 31.9821 10.7979 31.8491 10.3911C31.5127 9.33505 30.7225 8.52931 29.6351 8.15382C29.283 8.02866 28.5398 8.02083 20.2548 8.00519C15.3104 7.99737 11.0857 8.02083 10.8667 8.05213ZM29.4473 9.50715C29.8776 9.71054 30.4096 10.266 30.5504 10.6806C30.7147 11.1343 30.7147 28.9075 30.5504 29.3613C30.3939 29.7993 29.8228 30.386 29.3847 30.5581C29.0405 30.6911 28.4928 30.6989 19.981 30.6989C11.4691 30.6989 10.9215 30.6911 10.5772 30.5581C10.1391 30.386 9.568 29.7993 9.41153 29.3613C9.24724 28.9075 9.24724 11.1343 9.41153 10.6806C9.53671 10.3285 10.0452 9.73401 10.3895 9.56191C10.5146 9.49933 10.7806 9.41328 10.9762 9.38199C11.1718 9.3507 15.3339 9.32723 20.2157 9.33505C29.0561 9.34288 29.0952 9.34288 29.4473 9.50715Z" fill="#FEC83F"/>
<path d="M26.5134 10.8602C25.8015 11.181 25.3477 11.9006 25.3556 12.7064C25.3634 13.8094 26.1927 14.6386 27.2958 14.6464C28.4145 14.6543 29.2829 13.825 29.2907 12.7455C29.2907 12.0649 29.1656 11.752 28.7118 11.2905C28.4458 11.0323 28.1876 10.8524 27.9921 10.7976C27.5305 10.6725 26.8655 10.6959 26.5134 10.8602ZM27.7808 12.2136C28.1329 12.5421 27.9608 13.1445 27.4757 13.3166C27.2254 13.4026 26.8577 13.207 26.7403 12.9333C26.4743 12.2918 27.2723 11.7364 27.7808 12.2136Z" fill="#FEC83F"/>
<path d="M18.9247 13.4183C18.5414 13.4808 17.6339 13.7625 17.1958 13.958C15.8736 14.5447 14.5045 15.9137 13.9256 17.2279C13.464 18.2527 13.3701 18.7299 13.3701 20.0206C13.3701 21.3114 13.464 21.7886 13.9256 22.8134C14.5045 24.1276 15.8736 25.4966 17.1958 26.0833C18.2128 26.537 18.69 26.6309 19.9809 26.6309C21.2718 26.6309 21.749 26.537 22.766 26.0833C24.0882 25.4966 25.4573 24.1276 26.0362 22.8134C26.4978 21.7808 26.5917 21.3114 26.5839 20.0206C26.5839 19.0663 26.5526 18.7064 26.443 18.3388C25.9189 16.6256 24.9722 15.3192 23.611 14.443C22.4766 13.7077 21.6082 13.4496 20.2156 13.4104C19.6367 13.3948 19.0577 13.4026 18.9247 13.4183ZM21.2483 14.8498C23.6657 15.4678 25.3008 17.5565 25.3008 20.0206C25.3008 22.9464 22.9069 25.3401 19.9809 25.3401C16.0301 25.3401 13.4796 21.2097 15.2164 17.6425C16.2882 15.4443 18.8778 14.2475 21.2483 14.8498Z" fill="#FEC83F"/>
</svg>
