<svg width="40" height="40" viewBox="0 0 40 40" fill="none" xmlns="http://www.w3.org/2000/svg">
<path d="M18.1112 0.0805817C14.309 0.416958 10.3738 2.02844 7.34618 4.4926C6.45432 5.2123 5.0461 6.63604 4.34199 7.52C2.55043 9.76513 1.07963 12.8004 0.469405 15.5227C0.0860575 17.228 0 18.0651 0 20.0207C0 21.9764 0.0860575 22.8134 0.469405 24.5188C1.08745 27.2959 2.59737 30.378 4.45152 32.6545C5.17128 33.5462 6.59514 34.9543 7.47918 35.6584C9.7245 37.4498 12.76 38.9205 15.4825 39.5306C17.188 39.9139 18.0251 40 19.981 40C21.9368 40 22.774 39.9139 24.4795 39.5306C26.5214 39.0769 29.197 37.9348 30.9572 36.7692C34.0005 34.7431 36.3397 32.0834 37.9436 28.8213C39.2344 26.1851 39.8681 23.674 39.9855 20.7404C40.1654 16.0624 38.6711 11.4861 35.7217 7.66081C35.0645 6.80814 33.1947 4.9385 32.342 4.28139C28.2112 1.09754 23.2355 -0.373138 18.1112 0.0805817ZM22.641 1.51997C23.6815 1.67642 25.1679 2.03627 26.1928 2.38829C27.867 2.96717 30.1123 4.20316 31.5909 5.37658C32.3029 5.93199 34.071 7.69992 34.6264 8.41179C35.7999 9.89029 37.036 12.1354 37.615 13.8095C38.3425 15.9451 38.632 17.6974 38.632 20.0207C38.632 21.9217 38.5147 22.9073 38.0922 24.597C36.4258 31.1994 31.1607 36.4641 24.5577 38.1304C22.8678 38.5528 21.8821 38.6701 19.981 38.6701C17.6574 38.6701 15.905 38.3807 13.7692 37.6532C12.095 37.0743 9.84968 35.8383 8.37105 34.6649C7.65912 34.1095 5.89103 32.3415 5.33557 31.6297C4.16206 30.1512 2.92596 27.9061 2.34702 26.232C1.99497 25.1916 1.63509 23.7209 1.46298 22.6022C1.27522 21.3584 1.27522 18.683 1.46298 17.4392C1.76809 15.4131 2.31573 13.6452 3.19195 11.846C4.1777 9.83553 5.15563 8.46655 6.79072 6.8316C7.94076 5.68948 8.54317 5.18883 9.74797 4.39091C12.228 2.75596 15.1618 1.72336 18.2207 1.41045C19.183 1.30875 21.6396 1.37133 22.641 1.51997Z" fill="#FEC83F"/>
<path d="M29.0646 10.0358C28.6894 10.1531 6.36797 19.1149 6.26478 19.1899C6.09124 19.3119 5.96929 19.645 6.00681 19.8656C6.07716 20.2269 6.06309 20.2222 10.791 22.5119C13.2393 23.6989 15.2609 24.6889 15.2843 24.7124C15.3078 24.7359 16.2974 26.7581 17.4841 29.2073C19.773 33.9369 19.7683 33.9228 20.1295 33.9932C20.3499 34.0307 20.6829 33.9087 20.8049 33.7351C20.9268 33.5662 29.9088 11.1056 29.9745 10.8194C30.0167 10.6176 30.012 10.5707 29.9182 10.3924C29.7447 10.0687 29.407 9.92791 29.0646 10.0358ZM20.9972 17.9888L15.6736 23.3142L12.0714 21.5688C9.56679 20.3535 8.48801 19.8046 8.53022 19.7764C8.61464 19.7248 26.2128 12.6727 26.2738 12.668C26.2973 12.6633 23.924 15.061 20.9972 17.9888ZM23.7832 22.5916C21.8321 27.4666 20.2233 31.4689 20.2045 31.4877C20.1857 31.5111 19.3884 29.9065 18.4269 27.9264L16.6821 24.323L21.9915 19.0116C24.9136 16.0885 27.3057 13.705 27.3151 13.7144C27.3198 13.719 25.7344 17.7119 23.7832 22.5916Z" fill="#FEC83F"/>
</svg>
