<svg width="40" height="40" viewBox="0 0 40 40" fill="none" xmlns="http://www.w3.org/2000/svg">
<path d="M18.1112 0.0805817C14.309 0.416958 10.3738 2.02844 7.34618 4.4926C6.45432 5.2123 5.0461 6.63604 4.34199 7.52C2.55043 9.76513 1.07963 12.8004 0.469405 15.5227C0.0860575 17.228 0 18.0651 0 20.0207C0 21.9764 0.0860575 22.8134 0.469405 24.5188C1.08745 27.2959 2.59737 30.378 4.45152 32.6545C5.17128 33.5462 6.59514 34.9543 7.47918 35.6584C9.7245 37.4498 12.76 38.9205 15.4825 39.5306C17.188 39.9139 18.0251 40 19.981 40C21.9368 40 22.774 39.9139 24.4795 39.5306C26.5214 39.0769 29.197 37.9348 30.9572 36.7692C34.0005 34.7431 36.3397 32.0834 37.9436 28.8213C39.2344 26.1851 39.8681 23.674 39.9855 20.7404C40.1654 16.0624 38.6711 11.4861 35.7217 7.66081C35.0645 6.80814 33.1947 4.9385 32.342 4.28139C28.2112 1.09754 23.2355 -0.373138 18.1112 0.0805817ZM22.641 1.51997C23.6815 1.67642 25.1679 2.03627 26.1928 2.38829C27.867 2.96717 30.1123 4.20316 31.5909 5.37658C32.3029 5.93199 34.071 7.69992 34.6264 8.41179C35.7999 9.89029 37.036 12.1354 37.615 13.8095C38.3425 15.9451 38.632 17.6974 38.632 20.0207C38.632 21.9217 38.5147 22.9073 38.0922 24.597C36.4258 31.1994 31.1607 36.4641 24.5577 38.1304C22.8678 38.5528 21.8821 38.6701 19.981 38.6701C17.6574 38.6701 15.905 38.3807 13.7692 37.6532C12.095 37.0743 9.84968 35.8383 8.37105 34.6649C7.65912 34.1095 5.89103 32.3415 5.33557 31.6297C4.16206 30.1512 2.92596 27.9061 2.34702 26.232C1.99497 25.1916 1.63509 23.7209 1.46298 22.6022C1.27522 21.3584 1.27522 18.683 1.46298 17.4392C1.76809 15.4131 2.31573 13.6452 3.19195 11.846C4.1777 9.83553 5.15563 8.46655 6.79072 6.8316C7.94076 5.68948 8.54317 5.18883 9.74797 4.39091C12.228 2.75596 15.1618 1.72336 18.2207 1.41045C19.183 1.30875 21.6396 1.37133 22.641 1.51997Z" fill="#FEC83F"/>
<path d="M9.02356 11.0839C8.70929 11.1854 8.50759 11.3319 8.31996 11.5911C7.85558 12.2223 7.89311 13.0902 8.45599 15.1135C9.26748 18.0272 10.6981 21.1832 12.2789 23.5615C14.2959 26.5992 16.4255 28.3237 18.8459 28.8929C19.4369 29.0338 20.8253 29.0338 21.2803 28.8986C22.0402 28.6675 22.4577 28.2561 22.5984 27.5911C22.6172 27.4953 22.6312 26.7795 22.6266 26.0018C22.6219 25.2184 22.6312 24.4914 22.65 24.3787L22.6781 24.1814L22.9455 24.3505C23.5178 24.7168 24.3011 25.5791 25.4691 27.1177C26.3416 28.2674 26.6043 28.5548 27.0311 28.7971L27.3829 29H29.095C31.1214 29 31.1495 28.9944 31.5905 28.4646C31.8015 28.2054 31.8719 28.0757 31.9376 27.8165C32.2378 26.571 31.4919 25.0831 28.9027 21.775C28.3914 21.1212 27.9692 20.5633 27.9692 20.5464C27.9692 20.5238 28.1756 20.1519 28.4336 19.7123C29.4093 18.0328 30.4459 15.9758 30.9713 14.6852C31.4357 13.5467 31.506 13.2706 31.5107 12.6281C31.5107 12.0025 31.4263 11.7546 31.1073 11.4221C30.7321 11.0388 30.6382 11.0219 28.7432 11.0219C27.0874 11.0219 27.0499 11.0219 26.7872 11.1515C26.6324 11.2248 26.4026 11.4052 26.2571 11.5686C25.9898 11.856 25.9616 11.918 25.4363 13.2931C24.7421 15.0966 23.8367 16.8888 23.0628 17.9934C22.5609 18.7035 22.6031 18.9064 22.6359 15.8067C22.6688 12.3351 22.6359 11.9744 22.2044 11.4446C21.8385 10.9881 21.8338 10.9881 19.2117 11.005L16.9649 11.0219L16.6881 11.191C16.2003 11.4897 15.9095 12.1209 15.9798 12.7296C16.0174 13.0621 16.1862 13.5017 16.4208 13.8793C16.524 14.0427 16.6506 14.2794 16.7022 14.4034C16.9086 14.905 16.918 15.0289 16.9227 17.4354V19.7404L16.7397 19.4925C16.5052 19.1769 15.8626 17.999 15.5155 17.2494C14.9479 16.0321 14.385 14.5105 13.8972 12.893C13.5829 11.8504 13.3296 11.4446 12.7902 11.1515C12.565 11.0276 12.5181 11.0219 10.9186 11.0107C9.58644 10.9994 9.22995 11.0107 9.02356 11.0839ZM12.2648 12.893C12.307 12.9494 12.4055 13.2086 12.4806 13.4735C13.1936 15.8856 14.188 18.3033 15.1637 19.9659C15.5436 20.6196 16.2754 21.5044 16.6131 21.7242C17.1525 22.0736 17.8139 21.9553 18.1188 21.4537C18.419 20.969 18.4237 20.8958 18.4237 17.813C18.4237 15.2938 18.4143 14.9782 18.3346 14.5725C18.2455 14.0878 17.9968 13.3946 17.8233 13.1128C17.7623 13.017 17.6966 12.9043 17.6779 12.8648C17.6497 12.8141 18.0062 12.7972 19.3806 12.7972H21.1208V15.6263C21.1255 17.1874 21.1443 18.7147 21.1631 19.0247C21.21 19.6897 21.3366 20.1011 21.5758 20.3547C21.7916 20.5802 21.9323 20.6422 22.2513 20.6365C22.9455 20.6365 23.7664 19.9039 24.6154 18.5344C25.4081 17.2551 26.1774 15.6602 26.8529 13.9131C27.0546 13.3777 27.261 12.9043 27.3032 12.8648C27.3595 12.8141 27.7113 12.7972 28.6822 12.7972C29.6954 12.7972 29.9862 12.8141 29.9862 12.8648C29.9862 12.9043 29.9112 13.1522 29.8221 13.4115C29.5125 14.3132 28.4946 16.3703 27.3876 18.3202C26.6136 19.6841 26.4495 20.0786 26.4495 20.5689C26.4542 21.2396 26.5667 21.4424 27.8285 23.0261C28.3914 23.7306 29.1841 24.807 29.5735 25.3987C30.0003 26.0412 30.5022 27.0162 30.5022 27.2022C30.5022 27.2135 29.8877 27.2247 29.1325 27.2247H27.7675L27.5658 27.0838C27.458 27.0049 27.0686 26.5484 26.6981 26.0581C25.061 23.8771 23.9822 22.795 23.1238 22.4794C22.6594 22.3104 22.0731 22.3498 21.7635 22.5696C21.4961 22.7556 21.3413 23.0205 21.2334 23.477C21.1677 23.7531 21.149 24.1138 21.1396 25.4438C21.1255 26.8979 21.1162 27.0838 21.0458 27.1289C21.0036 27.1571 20.7128 27.1966 20.3985 27.2078C18.7192 27.298 17.0259 26.5146 15.4357 24.9197C13.9066 23.3811 12.4149 21.0254 11.1813 18.2019C10.4589 16.5393 9.68495 14.1667 9.5583 13.2199C9.53954 13.0959 9.51608 12.9494 9.50201 12.893C9.48325 12.8028 9.56768 12.7972 10.8389 12.7972C12.0725 12.7972 12.1992 12.8085 12.2648 12.893Z" fill="#FEC83F"/>
</svg>
