<svg width="40" height="40" viewBox="0 0 40 40" fill="none" xmlns="http://www.w3.org/2000/svg">
<path d="M17.5601 0.100368C15.1829 0.343719 12.9537 0.995895 10.7541 2.0861C7.66675 3.61434 5.32905 5.64874 3.39577 8.5008C-0.79631 14.643 -0.993584 22.7027 2.86313 29.3023L3.29713 30.0421L1.6203 34.5003C0.357744 37.878 -0.0368042 39.0363 0.00265067 39.2407C0.0815604 39.5814 0.58461 40 0.910112 40C1.0482 40 3.09986 39.1921 5.46715 38.1992L9.76772 36.3984L11.2966 37.1577C15.7747 39.3965 20.7756 39.9513 25.5694 38.7443C32.3852 37.0214 37.8004 31.6093 39.4674 24.8636C40.1775 21.9532 40.1775 18.4197 39.4674 15.519C37.9878 9.56181 33.8944 4.61694 28.2129 1.93036C24.9578 0.392387 21.1011 -0.269524 17.5601 0.100368ZM21.3576 2.04716C29.505 2.86482 36.1137 8.83176 37.7511 16.8428C37.9483 17.8065 37.9779 18.2348 37.9779 20.1913C37.9779 21.9532 37.9385 22.6151 37.8004 23.3062C36.9127 27.6768 34.6933 31.2783 31.2903 33.8773C25.5201 38.2868 17.4713 38.6664 11.0599 34.8507C10.5568 34.549 10.113 34.3543 9.94527 34.3543C9.77759 34.3543 8.10076 35.0065 6.20692 35.7949C4.31309 36.5931 2.75463 37.2355 2.7349 37.2258C2.72503 37.2161 3.30699 35.6002 4.04677 33.6437C4.77669 31.6872 5.37837 29.974 5.37837 29.8572C5.37837 29.7306 5.17124 29.3023 4.91478 28.9032C1.12711 22.9168 1.14684 15.3827 4.95423 9.67862C8.53476 4.31519 14.8377 1.38525 21.3576 2.04716Z" fill="#FEC83F"/>
<path d="M12.9245 8.0431C11.7803 8.5006 10.3205 9.73682 9.57081 10.8952C8.74226 12.1509 8.50553 13.2995 8.72253 14.9056C9.29462 19.1399 12.1354 23.6759 16.2781 26.9855C19.5036 29.565 23.094 31.0445 26.132 31.0737C26.9605 31.0737 27.2466 31.0348 27.8384 30.8304C29.5152 30.2463 31.3104 28.5721 31.9812 26.9563C32.3658 26.0413 32.2376 25.0387 31.6655 24.4838C31.4978 24.3183 30.8764 23.89 30.2846 23.5396C29.6829 23.1892 28.7163 22.6052 28.1244 22.2547C26.4476 21.2424 25.7374 21.1159 24.8201 21.6707C24.4157 21.9238 24.0902 22.2645 23.015 23.5494L22.6501 23.9874L22.2753 23.8511C21.3579 23.5299 19.5233 22.1477 18.2903 20.8433C17.0475 19.5292 15.9329 17.9134 15.9329 17.4169C15.9329 17.3099 16.2387 16.9886 16.653 16.648C17.6097 15.879 18.3594 15.071 18.4975 14.633C18.7441 13.903 18.4383 13.134 16.939 10.7492C15.4594 8.40326 15.42 8.34486 14.9564 8.10151C14.4336 7.82895 13.5262 7.79976 12.9245 8.0431ZM14.4336 10.4571C14.621 10.7784 15.0945 11.5473 15.489 12.1606C15.8836 12.7738 16.2979 13.4649 16.4064 13.6888L16.6234 14.0976L15.9625 14.6622C13.9799 16.3559 13.753 16.6869 13.9602 17.6408C14.2265 18.916 15.3312 20.6 17.008 22.3131C19.1879 24.5325 21.3284 25.8855 22.7093 25.8952C23.4195 25.905 23.7844 25.6616 24.7609 24.5033C25.9248 23.1308 25.8065 23.1989 26.5265 23.5786C26.852 23.7635 27.7496 24.2891 28.5091 24.7466C29.2686 25.2139 29.969 25.6422 30.0775 25.7006C30.3438 25.8563 30.2254 26.2749 29.6928 27.0049C28.8544 28.173 27.5721 29.0393 26.5364 29.1561C25.8558 29.234 24.248 28.9712 23.1334 28.611C17.2448 26.6837 11.731 20.6486 10.7446 15.0808C10.4388 13.3287 10.6953 12.4039 11.8296 11.2067C12.5496 10.4474 13.5064 9.80496 13.8517 9.84389C14.0391 9.86336 14.187 10.0191 14.4336 10.4571Z" fill="#FEC83F"/>
</svg>
