<svg width="40" height="40" viewBox="0 0 40 40" fill="none" xmlns="http://www.w3.org/2000/svg">
<path d="M18.1112 0.0805817C14.309 0.416958 10.3738 2.02844 7.34618 4.4926C6.45432 5.2123 5.0461 6.63604 4.34199 7.52C2.55043 9.76513 1.07963 12.8004 0.469405 15.5227C0.0860575 17.228 0 18.0651 0 20.0207C0 21.9764 0.0860575 22.8134 0.469405 24.5188C1.08745 27.2959 2.59737 30.378 4.45152 32.6545C5.17128 33.5462 6.59514 34.9543 7.47918 35.6584C9.7245 37.4498 12.76 38.9205 15.4825 39.5306C17.188 39.9139 18.0251 40 19.981 40C21.9368 40 22.774 39.9139 24.4795 39.5306C26.5214 39.0769 29.197 37.9348 30.9572 36.7692C34.0005 34.7431 36.3397 32.0834 37.9436 28.8213C39.2344 26.1851 39.8681 23.674 39.9855 20.7404C40.1654 16.0624 38.6711 11.4861 35.7217 7.66081C35.0645 6.80814 33.1947 4.9385 32.342 4.28139C28.2112 1.09754 23.2355 -0.373138 18.1112 0.0805817ZM22.641 1.51997C23.6815 1.67642 25.1679 2.03627 26.1928 2.38829C27.867 2.96717 30.1123 4.20316 31.5909 5.37658C32.3029 5.93199 34.071 7.69992 34.6264 8.41179C35.7999 9.89029 37.036 12.1354 37.615 13.8095C38.3425 15.9451 38.632 17.6974 38.632 20.0207C38.632 21.9217 38.5147 22.9073 38.0922 24.597C36.4258 31.1994 31.1607 36.4641 24.5577 38.1304C22.8678 38.5528 21.8821 38.6701 19.981 38.6701C17.6574 38.6701 15.905 38.3807 13.7692 37.6532C12.095 37.0743 9.84968 35.8383 8.37105 34.6649C7.65912 34.1095 5.89103 32.3415 5.33557 31.6297C4.16206 30.1512 2.92596 27.9061 2.34702 26.232C1.99497 25.1916 1.63509 23.7209 1.46298 22.6022C1.27522 21.3584 1.27522 18.683 1.46298 17.4392C1.76809 15.4131 2.31573 13.6452 3.19195 11.846C4.1777 9.83553 5.15563 8.46655 6.79072 6.8316C7.94076 5.68948 8.54317 5.18883 9.74797 4.39091C12.228 2.75596 15.1618 1.72336 18.2207 1.41045C19.183 1.30875 21.6396 1.37133 22.641 1.51997Z" fill="#FEC83F"/>
<path d="M14.8066 12.3627C14.0914 12.6486 13.179 13.4213 12.7105 14.1452C12.1927 14.93 12.0447 15.6479 12.1803 16.6517C12.5379 19.2982 14.3134 22.1332 16.9026 24.2017C18.9185 25.8139 21.1625 26.7386 23.0612 26.7568C23.5791 26.7568 23.7579 26.7325 24.1278 26.6047C25.1758 26.2397 26.2978 25.1933 26.717 24.1834C26.9574 23.6115 26.8773 22.9849 26.5197 22.6381C26.4149 22.5347 26.0265 22.267 25.6566 22.048C25.2806 21.829 24.6764 21.464 24.3065 21.245C23.2585 20.6123 22.8147 20.5332 22.2413 20.8799C21.9886 21.0381 21.7851 21.251 21.1132 22.0541L20.8851 22.3279L20.6508 22.2427C20.0775 22.0419 18.9308 21.178 18.1602 20.3628C17.3834 19.5415 16.6868 18.5316 16.6868 18.2213C16.6868 18.1544 16.8779 17.9537 17.1369 17.7407C17.7348 17.2601 18.2034 16.7552 18.2897 16.4814C18.4438 16.0251 18.2527 15.5445 17.3156 14.054C16.3909 12.5878 16.3663 12.5513 16.0765 12.3992C15.7498 12.2289 15.1826 12.2106 14.8066 12.3627ZM15.7498 13.8715C15.8669 14.0722 16.1628 14.5528 16.4094 14.9361C16.656 15.3194 16.9149 15.7513 16.9827 15.8913L17.1184 16.1468L16.7053 16.4996C15.4662 17.5582 15.3244 17.7651 15.4539 18.3613C15.6203 19.1582 16.3108 20.2107 17.3588 21.2815C18.7212 22.6686 20.059 23.5142 20.9221 23.5203C21.3659 23.5264 21.594 23.3743 22.2043 22.6503C22.9318 21.7925 22.8578 21.8351 23.3078 22.0724C23.5113 22.1879 24.0723 22.5165 24.547 22.8024C25.0217 23.0944 25.4594 23.3621 25.5272 23.3986C25.6936 23.4959 25.6196 23.7575 25.2867 24.2138C24.7627 24.9439 23.9613 25.4853 23.314 25.5583C22.8886 25.607 21.8838 25.4427 21.1871 25.2176C17.5067 24.0131 14.0606 20.2411 13.4441 16.7612C13.253 15.6662 13.4133 15.0882 14.1223 14.3399C14.5723 13.8654 15.1703 13.4639 15.386 13.4882C15.5032 13.5004 15.5957 13.5977 15.7498 13.8715Z" fill="#FEC83F"/>
<path d="M17.975 7.06273C16.4893 7.21482 15.0961 7.62243 13.7213 8.30381C11.7917 9.25896 10.3307 10.5305 9.12235 12.313C6.50231 16.1518 6.37901 21.1892 8.78945 25.314L9.06071 25.7763L8.01269 28.5627C7.22359 30.6737 6.977 31.3977 7.00166 31.5255C7.05098 31.7384 7.36538 32 7.56882 32C7.65513 32 8.93741 31.495 10.417 30.8745L13.1048 29.749L14.0604 30.2235C16.8592 31.6228 19.9848 31.9696 22.9809 31.2152C27.2408 30.1384 30.6252 26.7558 31.6671 22.5398C32.111 20.7207 32.111 18.5123 31.6671 16.6994C30.7424 12.9761 28.184 9.88559 24.633 8.20647C22.5986 7.24524 20.1882 6.83155 17.975 7.06273ZM20.3485 8.27948C25.4406 8.79051 29.5711 12.5198 30.5944 17.5268C30.7177 18.1291 30.7362 18.3967 30.7362 19.6196C30.7362 20.7207 30.7116 21.1344 30.6252 21.5664C30.0704 24.298 28.6833 26.549 26.5565 28.1733C22.95 30.9293 17.9196 31.1665 13.9124 28.7817C13.598 28.5931 13.3206 28.4714 13.2158 28.4714C13.111 28.4714 12.063 28.879 10.8793 29.3718C9.69568 29.8707 8.72164 30.2722 8.70931 30.2661C8.70315 30.26 9.06687 29.2501 9.52923 28.0273C9.98543 26.8045 10.3615 25.7337 10.3615 25.6607C10.3615 25.5816 10.232 25.314 10.0717 25.0645C7.70445 21.323 7.71678 16.6142 10.0964 13.0491C12.3342 9.69699 16.2735 7.86578 20.3485 8.27948Z" fill="#FEC83F"/>
</svg>
