<svg width="20" height="20" viewBox="0 0 20 20" fill="none" xmlns="http://www.w3.org/2000/svg">
<path d="M1.16822 0.224688C0.915888 0.346392 0.626168 0.524269 0.542056 0.617887C0.271028 0.926832 0 1.61961 0 2.01282C0 2.79922 0.205607 3.05199 3.76636 6.61889L7.14953 10.0173L3.76636 13.4063C1.91589 15.2787 0.336449 16.9264 0.252336 17.0855C-0.140187 17.9 0 18.7332 0.654206 19.3792C1.29907 20.0345 2.13084 20.175 2.94393 19.7818C3.1028 19.6975 4.74766 18.1153 6.61682 16.2617L10 12.8727L13.3925 16.2617C15.6729 18.546 16.8878 19.6975 17.1215 19.8005C18.3925 20.3248 19.7944 19.5009 19.8878 18.1715C19.9626 17.1511 20.0093 17.2166 16.2804 13.4531L12.8505 10.0173L16.2336 6.61889C19.7944 3.05199 19.9907 2.80858 20 2.01282C20 1.60089 19.6636 0.786404 19.3832 0.542994C19.0748 0.271496 18.3832 0 17.9907 0C17.2056 0 16.9533 0.205963 13.3925 3.77286L10 7.16188L6.61682 3.77286C3.04673 0.205963 2.80374 0.00936317 2.00935 0C1.80374 0 1.42991 0.102982 1.16822 0.224688Z" fill="#FEC83F"/>
</svg>
