<svg width="100" height="100" viewBox="0 0 100 100" fill="none" xmlns="http://www.w3.org/2000/svg">
<path d="M22.2222 96.1708C32.9322 96.1708 41.6142 87.9538 41.6142 77.8177C41.6142 67.6815 32.9322 59.4644 22.2222 59.4644C11.5122 59.4644 2.83008 67.6815 2.83008 77.8177C2.83008 87.9538 11.5122 96.1708 22.2222 96.1708Z" stroke="#FEC83F" stroke-width="3"/>
<path d="M77.7776 54.1071C88.4874 54.1071 97.1696 45.8901 97.1696 35.7539C97.1696 25.6176 88.4874 17.4006 77.7776 17.4006C67.0676 17.4006 58.3855 25.6176 58.3855 35.7539C58.3855 45.8901 67.0676 54.1071 77.7776 54.1071Z" stroke="#FEC83F" stroke-width="3"/>
<path d="M26.8707 10.6156L20.2058 16.7738C17.884 18.919 17.8394 22.4396 20.106 24.6369C22.3728 26.8342 26.0924 26.8765 28.4141 24.7312L35.079 18.5731C37.4009 16.4278 37.4454 12.9074 35.1788 10.71C32.912 8.51264 29.1924 8.47037 26.8707 10.6156Z" stroke="#FEC83F" stroke-width="2"/>
<path d="M58.3823 3.43086L49.1168 2.52843C45.8891 2.21405 43.0032 4.43561 42.671 7.49041C42.3389 10.5452 44.6861 13.2764 47.9138 13.5908L57.1793 14.4932C60.407 14.8076 63.2928 12.5861 63.6251 9.53127C63.9572 6.47646 61.61 3.74523 58.3823 3.43086Z" stroke="#FEC83F" stroke-width="2"/>
<path d="M10.0321 37.0034L7.9882 45.6039C7.27622 48.6 9.26532 51.5752 12.431 52.2489C15.5967 52.9228 18.7401 51.0403 19.4522 48.0443L21.4959 39.4435C22.208 36.4475 20.219 33.4725 17.0532 32.7986C13.8875 32.1248 10.7441 34.0073 10.0321 37.0034Z" stroke="#FEC83F" stroke-width="2"/>
<path d="M23.2135 23.3765L18.0332 34.8161" stroke="#FEC83F" stroke-width="2" stroke-linecap="round"/>
<path d="M15.5051 49.8408L17.107 58.9369" stroke="#FEC83F" stroke-width="2" stroke-linecap="round"/>
<path d="M45.371 8.51758L33.4438 11.7428" stroke="#FEC83F" stroke-width="2" stroke-linecap="round"/>
<path d="M66.2373 18.6496L59.7056 10.9226" stroke="#FEC83F" stroke-width="2" stroke-linecap="round"/>
</svg>
