<svg width="99" height="81" viewBox="0 0 99 81" fill="none" xmlns="http://www.w3.org/2000/svg">
<path d="M92.1604 71.0324C95.3096 71.0324 97.6057 67.3063 96.8579 63.4552C94.1584 49.5799 84.2029 39.2761 72.3367 39.2761C60.4705 39.2761 50.5088 49.5799 47.8155 63.4625C47.0677 67.3137 49.3638 71.0324 52.513 71.0324H92.1604Z" stroke="#FEC83F" stroke-width="3" stroke-miterlimit="10"/>
<path d="M46.4871 71.0324C49.6363 71.0324 51.9324 67.3063 51.1844 63.4552C48.4853 49.5799 38.5294 39.2761 26.6634 39.2761C14.7971 39.2761 4.83556 49.5799 2.14215 63.4625C1.39432 67.3137 3.69044 71.0324 6.83955 71.0324H46.4871Z" stroke="#FEC83F" stroke-width="3" stroke-miterlimit="10"/>
<path d="M64.1844 79.5001C66.5172 79.5001 68.218 76.7677 67.6639 73.9434C65.6645 63.7682 58.2901 56.2122 49.5001 56.2122C40.7102 56.2122 33.3314 63.7682 31.3362 73.949C30.7824 76.7728 32.4831 79.5001 34.8159 79.5001H64.1844Z" fill="#00072C" stroke="#FEC83F" stroke-width="3" stroke-miterlimit="10"/>
<path d="M83.4931 15.9879C83.4931 23.7132 78.0889 29.9757 71.4226 29.9757C64.756 29.9757 59.3518 23.7132 59.3518 15.9879C59.3518 8.26261 64.756 2 71.4226 2C78.0889 2 83.4931 8.26261 83.4931 15.9879Z" stroke="#FEC83F" stroke-width="3" stroke-miterlimit="10"/>
<path d="M39.6472 15.9879C39.6472 23.7132 34.2428 29.9757 27.5765 29.9757C20.9101 29.9757 15.5059 23.7132 15.5059 15.9879C15.5059 8.26261 20.9101 2 27.5765 2C34.2428 2 39.6472 8.26261 39.6472 15.9879Z" stroke="#FEC83F" stroke-width="3" stroke-miterlimit="10"/>
<path d="M57.9167 39.2757C57.9167 44.6626 54.1484 49.0296 49.4999 49.0296C44.8514 49.0296 41.083 44.6626 41.083 39.2757C41.083 33.8892 44.8514 29.5222 49.4999 29.5222C54.1484 29.5222 57.9167 33.8892 57.9167 39.2757Z" stroke="#FEC83F" stroke-width="3" stroke-miterlimit="10"/>
</svg>
