<svg width="103" height="104" viewBox="0 0 103 104" fill="none" xmlns="http://www.w3.org/2000/svg">
<path d="M92.4285 22.8335H10.5238C5.78994 22.8335 1.95239 27.0308 1.95239 32.2084V92.6249C1.95239 97.8027 5.78994 102 10.5238 102H92.4285C97.1624 102 101 97.8027 101 92.6249V32.2084C101 27.0308 97.1624 22.8335 92.4285 22.8335Z" stroke="#FEC83F" stroke-width="3"/>
<path d="M75.8008 45.8184V69.6229" stroke="#FEC83F" stroke-width="3" stroke-linecap="round"/>
<path d="M27.7134 45.8184V69.6229" stroke="#FEC83F" stroke-width="3" stroke-linecap="round"/>
<path d="M71.4761 22.8333V22.8333C73.054 22.8333 74.3331 21.5541 74.3331 19.9763V19.7083V11.375C74.3331 6.19732 70.4956 2 65.7618 2H35.2856C30.5518 2 26.7141 6.19732 26.7141 11.375V19.7083V19.9761C26.7141 21.5541 27.9933 22.8333 29.5713 22.8333V22.8333H71.4761Z" stroke="#FEC83F" stroke-width="3"/>
<path d="M1 58.2498H100.047" stroke="#FEC83F" stroke-width="3"/>
</svg>
