<svg width="100" height="100" viewBox="0 0 100 100" fill="none" xmlns="http://www.w3.org/2000/svg">
<path d="M99.3892 48.3029L90.8704 56.6764L91.9214 57.7094C92.5564 58.3329 93.0602 59.0734 93.4037 59.8885C93.7476 60.7036 93.9245 61.5774 93.9245 62.4597C93.9245 63.342 93.7476 64.2157 93.4037 65.0306C93.0602 65.8457 92.5564 66.5862 91.9214 67.2099L90.329 68.775C89.7038 69.3953 88.9597 69.8876 88.1397 70.2234C87.3199 70.5592 86.4404 70.7318 85.5521 70.7313H85.0902C85.1407 71.6641 84.9923 72.5969 84.6552 73.4699C84.3178 74.3432 83.799 75.1376 83.1316 75.8025L81.5395 77.3676C80.914 77.9888 80.1702 78.4825 79.3504 78.8208C78.5309 79.1592 77.6514 79.3355 76.7623 79.3397C76.6085 79.3483 76.4545 79.3483 76.3007 79.3397C76.3768 80.296 76.2411 81.2571 75.903 82.1569C75.5649 83.0567 75.0323 83.8736 74.3421 84.5515L72.7497 86.1169C71.4847 87.368 69.7676 88.0769 67.9728 88.089C67.6152 88.0755 67.2588 88.039 66.9059 87.9792C66.8587 89.7422 66.1299 91.4213 64.8678 92.6748L63.2754 94.2399C62.003 95.4846 60.293 96.2018 58.4985 96.2432H58.3552C57.4959 96.2485 56.6442 96.0869 55.849 95.7671C55.0538 95.4474 54.3307 94.9762 53.7216 94.3808L53.1164 93.786L49.5814 97.245C48.1188 98.6785 46.1376 99.4836 44.0721 99.4836C42.0064 99.4836 40.0252 98.6785 38.5626 97.245L37.9257 96.6032C37.1021 95.7906 36.4764 94.8053 36.0957 93.7208C35.7152 92.6367 35.5895 91.4815 35.7283 90.3427C35.4311 90.3581 35.1335 90.3581 34.8366 90.3427C33.8128 90.3487 32.7983 90.1539 31.8523 89.7697C30.9061 89.3853 30.0478 88.8192 29.3271 88.1046L28.6902 87.4627C27.8673 86.6501 27.2435 85.6643 26.8654 84.5797C26.4876 83.495 26.3657 82.3401 26.5088 81.2022C26.1902 81.2022 25.9038 81.2962 25.6011 81.2962C23.5367 81.2911 21.5573 80.4871 20.0917 79.0581L19.4548 78.4162C18.632 77.6032 18.007 76.6176 17.6265 75.5334C17.246 74.4492 17.1198 73.2946 17.2573 72.1557C16.955 72.1718 16.652 72.1718 16.3497 72.1557C15.3267 72.1576 14.3134 71.9606 13.3679 71.5767C12.4225 71.1925 11.5635 70.6287 10.8403 69.9176L10.2193 69.3071C9.49325 68.5974 8.91713 67.7536 8.52399 66.8241C8.13085 65.8948 7.92847 64.8983 7.92847 63.8918C7.92847 62.8853 8.13085 61.8887 8.52399 60.9592C8.91713 60.0299 9.49325 59.1862 10.2193 58.4764L10.9199 57.7564L1.36597 48.3655L50.3299 0.0964355L99.3892 48.3029ZM88.3864 54.2974L94.469 48.3029L58.3552 12.7428L36.0626 34.7643C35.4728 36.006 35.3447 37.4115 35.7007 38.7362C36.0566 40.0611 36.8742 41.2211 38.0109 42.0143C39.1476 42.8076 40.5311 43.1839 41.9211 43.0774C43.3109 42.9708 44.6188 42.3885 45.6166 41.432L60.4252 26.6569L82.4311 48.3499L88.3864 54.2974ZM89.5009 64.8464C90.1273 64.2201 90.4783 63.3769 90.4783 62.4987C90.4783 61.6206 90.1273 60.7774 89.5009 60.1511L78.8323 49.6332L60.3933 31.4462L47.9414 43.8267C46.6218 45.1004 44.9483 45.9613 43.1316 46.3013C41.3149 46.6413 39.4364 46.4448 37.7333 45.7364C36.0299 45.0283 34.5783 43.8404 33.5611 42.322C32.5442 40.8039 32.0071 39.0239 32.0183 37.206C32.0223 35.749 32.3711 34.3129 33.0373 33.0115L33.3716 32.5887L55.919 10.3481L50.3299 4.85447L6.11109 48.3029L13.3084 55.4555L14.2478 54.5322C14.9699 53.8185 15.8284 53.2522 16.7739 52.8657C17.7194 52.4794 18.7333 52.2804 19.7573 52.2804C20.7813 52.2804 21.7951 52.4794 22.7406 52.8657C23.6861 53.2522 24.5447 53.8185 25.2666 54.5322L25.9195 55.1583C26.7414 55.972 27.3657 56.9578 27.7461 58.0418C28.1266 59.1257 28.2533 60.2799 28.1171 61.4188C28.4164 61.3634 28.7199 61.332 29.0247 61.3248C30.0476 61.3232 31.0609 61.5199 32.0064 61.9041C32.9518 62.2881 33.8109 62.8518 34.534 63.5629L35.1709 64.2048C35.9909 65.0194 36.6128 66.0055 36.9907 67.0897C37.3683 68.1736 37.4921 69.3276 37.3523 70.4653C38.5271 70.3297 39.7178 70.4578 40.8349 70.8401C41.9521 71.2225 42.9664 71.8487 43.8014 72.6722L44.4383 73.3139C45.2649 74.1243 45.8926 75.1097 46.2733 76.1946C46.654 77.2794 46.778 78.4355 46.6357 79.5746C47.7957 79.439 48.9718 79.5643 50.0752 79.9413C51.1788 80.3181 52.1804 80.9367 53.0049 81.7501L53.6578 82.3604C54.7959 83.4708 55.559 84.8983 55.8438 86.4492C56.1285 88.0004 55.9214 89.5999 55.2502 91.0313L56.2054 91.9704C56.5021 92.2643 56.8578 92.4939 57.2499 92.6448C57.6421 92.7957 58.0618 92.8646 58.4826 92.8469C59.3859 92.8243 60.2438 92.4532 60.8711 91.8139L62.4633 90.2487C63.1118 89.6246 63.4888 88.7774 63.5142 87.8855C63.5285 87.4722 63.4566 87.0608 63.3033 86.676C63.1499 86.2911 62.9183 85.9411 62.6226 85.6474L56.4921 79.6371L51.763 75.0669L54.1354 72.6722L59.8678 78.3067L59.9635 78.2127L65.5047 83.6283C66.1418 84.2439 66.9997 84.5887 67.8933 84.5887C68.7866 84.5887 69.6445 84.2439 70.2816 83.6283L71.874 82.0632C72.5054 81.4234 72.8583 80.5674 72.8583 79.6762C72.8583 78.785 72.5054 77.929 71.874 77.2895L62.7499 68.3367L61.1576 66.7715L63.594 64.3925L74.2466 74.879C74.8933 75.4767 75.7473 75.8092 76.6349 75.8092C77.5226 75.8092 78.3768 75.4767 79.0235 74.879L80.6159 73.3139C81.2421 72.6876 81.593 71.8443 81.593 70.9662C81.593 70.0881 81.2421 69.2448 80.6159 68.6185L69.8518 58.0381L69.4854 57.6781L71.9695 55.4555L83.1157 66.4115C83.7549 67.0234 84.6121 67.366 85.5042 67.366C86.3966 67.366 87.2535 67.0234 87.8928 66.4115L89.5009 64.8464ZM51.2852 90.8278C52.103 90.0185 52.5621 88.9243 52.5621 87.7836C52.5621 86.6429 52.103 85.5488 51.2852 84.7394L50.6483 84.1134C49.8278 83.3106 48.7171 82.8599 47.5592 82.8599C46.4014 82.8599 45.2907 83.3106 44.4702 84.1134L40.3938 88.1357C39.5809 88.9443 39.1249 90.0355 39.1249 91.1722C39.1249 92.309 39.5809 93.3999 40.3938 94.2085L41.0307 94.8504C41.858 95.6467 42.9699 96.0925 44.1278 96.0925C45.2857 96.0925 46.3976 95.6467 47.2249 94.8504L51.2852 90.8278ZM42.0337 81.7343C42.4421 81.3371 42.7661 80.8641 42.9873 80.3429C43.2085 79.8218 43.3223 79.2627 43.3223 78.6981C43.3223 78.1334 43.2085 77.5741 42.9873 77.0529C42.7661 76.5318 42.4421 76.059 42.0337 75.6615L41.4128 75.0355C41.0076 74.6362 40.5261 74.3192 39.9961 74.1029C39.4659 73.8869 38.8976 73.7755 38.3238 73.7755C37.7499 73.7755 37.1816 73.8869 36.6516 74.1029C36.1214 74.3192 35.6399 74.6362 35.2347 75.0355L31.0628 79.0422C30.6464 79.4432 30.3154 79.9215 30.0895 80.4497C29.8638 80.9778 29.7473 81.545 29.7473 82.1178C29.7473 82.6908 29.8638 83.2578 30.0895 83.786C30.3154 84.3141 30.6464 84.7925 31.0628 85.1934L31.7157 85.8039C32.5361 86.6067 33.6468 87.0574 34.8047 87.0574C35.9626 87.0574 37.0733 86.6067 37.8937 85.8039L41.9702 81.8127L42.0337 81.7343ZM32.7507 72.6722C33.5635 71.8636 34.0195 70.7727 34.0195 69.6357C34.0195 68.499 33.5635 67.4081 32.7507 66.5994L32.0978 65.989C31.6978 65.5867 31.2197 65.2671 30.6918 65.0492C30.164 64.8315 29.5971 64.7199 29.0247 64.7213C28.4485 64.7174 27.8773 64.826 27.3442 65.0408C26.8111 65.256 26.3268 65.5729 25.9195 65.9734L21.8273 69.9332C21.0144 70.7418 20.5585 71.8327 20.5585 72.9697C20.5585 74.1064 21.0144 75.1973 21.8273 76.006L22.4802 76.632C22.8844 77.0334 23.3655 77.3518 23.8957 77.5692C24.4259 77.7867 24.9947 77.8985 25.5692 77.8985C26.1438 77.8985 26.7126 77.7867 27.2428 77.5692C27.773 77.3518 28.2542 77.0334 28.6583 76.632L32.7507 72.6722ZM23.5152 63.5943C24.328 62.7857 24.784 61.6948 24.784 60.5581C24.784 59.4211 24.328 58.3301 23.5152 57.5215L22.8623 56.8799C22.4427 56.4748 21.9446 56.1567 21.3975 55.9443C20.8505 55.7318 20.2657 55.6294 19.6777 55.6434C18.5272 55.6397 17.4221 56.0843 16.6045 56.8799L12.5918 60.8553C11.7751 61.662 11.3165 62.7536 11.3165 63.8918C11.3165 65.0297 11.7751 66.1215 12.5918 66.9281L13.2288 67.5699C14.0514 68.369 15.1613 68.8169 16.3179 68.8169C17.4744 68.8169 18.5843 68.369 19.407 67.5699L23.4833 63.5474L23.5152 63.5943Z" fill="#FEC83F"/>
</svg>
