<svg width="90" height="90" viewBox="0 0 90 90" fill="none" xmlns="http://www.w3.org/2000/svg">
<path d="M22.6043 0.10627C19.9738 0.523964 17.8512 1.4683 15.2389 3.3933C14.3136 4.0834 13.4429 4.64636 13.334 4.64636C13.2252 4.64636 12.5721 4.93693 11.8645 5.28197C8.90748 6.77112 6.91191 9.96735 6.91191 13.2544C6.91191 15.0886 7.27474 16.269 8.70792 19.1565L9.97783 21.6808L9.27031 21.8079C8.29067 21.9713 7.02076 22.8249 6.42209 23.7329C5.96855 24.423 5.91413 24.6591 5.91413 26.0937C5.91413 27.5647 5.95041 27.7282 6.45838 28.4546C7.16589 29.4716 8.39952 30.2343 9.56057 30.3614L10.4676 30.4704L10.8123 31.6871C11.7013 34.847 13.842 37.7527 16.672 39.605L17.434 40.1135V42.0567V43.9998L10.7761 46.7602C7.09333 48.2857 3.66458 49.8293 3.13848 50.1744C1.99557 50.9552 1.26991 51.827 0.59867 53.2616L0.108849 54.3149L0.0544245 65.1748L0 76.0165L0.453538 76.4705L0.907075 76.9245H6.27696H11.6287V83.0083V89.1101L12.0822 89.546L12.5176 90H45.0091H77.5005L77.9359 89.546L78.3894 89.1101V83.0083V76.9245H83.7412H89.1111L89.5465 76.4705L90 76.0347V65.6288C90 54.7508 89.9637 54.2968 89.1836 52.7713C88.6394 51.718 87.8775 50.8644 86.8797 50.1744C86.3536 49.8293 82.9248 48.2857 79.2602 46.7602L72.5842 43.9817V42.0567V40.1135L73.3642 39.605C76.1762 37.7527 78.3169 34.847 79.2058 31.6871L79.5505 30.4704L80.4576 30.3614C82.5257 30.1253 84.0496 28.4546 84.1584 26.2753C84.2129 25.2402 84.1584 24.9496 83.7049 24.0779C83.1062 22.9338 81.9089 22.0077 80.7478 21.8079C80.3487 21.7353 80.0222 21.6626 80.0222 21.6263C80.0222 21.59 80.4032 20.682 80.8567 19.5923C81.8908 17.2133 82.1629 16.2327 82.308 14.4529C82.5438 11.3112 81.1832 7.76994 78.843 5.46358C77.4279 4.06523 76.3032 3.41146 72.4027 1.68623C69.2824 0.324203 67.9218 0.0154724 65.2369 0.0336304C61.6448 0.0881119 59.1957 0.959816 55.8758 3.3933C54.9506 4.0834 54.0798 4.64636 53.971 4.64636C53.3179 4.64636 51.1409 6.00839 50.1431 7.06169C48.2383 9.04117 47.4219 11.2204 47.6033 13.9081C47.6577 14.7617 47.7666 15.6334 47.8391 15.8695C47.948 16.2508 47.9117 16.269 47.44 16.1419C46.6962 15.9603 43.0679 16.0147 42.1427 16.2327L41.3626 16.4143L41.5078 15.7423C41.7436 14.6709 41.6348 12.0921 41.2901 10.8209C40.5644 8.02419 38.46 5.17301 36.1016 3.77467C34.5051 2.83033 29.6251 0.723732 28.2645 0.396843C26.7224 0.0154724 24.0556 -0.111649 22.6043 0.10627ZM27.7746 3.28434C29.4618 3.72018 34.4326 6.06287 35.4848 6.9164C37.9339 8.93221 39.1675 12.0376 38.6777 14.9978C38.3149 17.2133 38.0972 17.5584 36.1923 18.9386C34.3237 20.2824 34.2874 20.3006 32.2919 21.2449C28.4822 23.0428 26.4322 27.4558 27.5025 31.5782C27.6477 32.1411 28.337 33.7574 29.0445 35.1558L30.3145 37.6982H29.3892C27.9016 37.6982 27.049 38.0432 26.0512 39.0602C24.2008 40.8944 24.2008 43.2189 26.0512 45.0531C27.1034 46.1246 27.9016 46.4152 29.6614 46.4152C30.5866 46.4152 30.8587 46.4696 30.8587 46.6694C30.8587 47.2869 32.0379 50.1199 32.7454 51.2458C33.6706 52.6623 35.4304 54.4965 36.791 55.4409L37.7525 56.0946V57.9651V59.8357L36.8091 60.1081C36.283 60.2534 31.6932 61.5246 26.5954 62.9411C21.5158 64.3394 16.9804 65.6288 16.5269 65.7741C13.6243 66.7911 11.6287 69.6786 11.6287 72.8566V74.0189H7.27474H2.90264L2.95707 64.4484C3.01149 54.9324 3.01149 54.8597 3.4106 54.097C3.6283 53.6975 4.11812 53.1163 4.46281 52.8076C4.86192 52.4807 7.92784 51.1005 12.4632 49.23C17.2163 47.2505 19.9012 46.0338 20.0826 45.7977C20.2822 45.5071 20.3366 44.7081 20.3366 42.1475C20.3366 38.3701 20.3548 38.4065 18.7402 37.4984C18.1778 37.1716 17.1256 36.318 16.4181 35.6098C14.8398 34.0117 13.7513 31.9777 13.334 29.7984C12.953 27.8371 12.6083 27.5284 10.8849 27.5284C9.77827 27.5284 9.56057 27.4739 9.1796 27.0744C8.58093 26.4933 8.58093 25.6579 9.1796 25.0768C9.56057 24.6772 9.77827 24.6227 10.903 24.6227C12.0278 24.6227 12.2455 24.5683 12.6265 24.1687C13.0075 23.8055 13.08 23.5513 13.08 22.5888C13.08 21.5173 12.9893 21.2449 11.5017 18.194L9.90526 14.9251V13.2907C9.90526 11.7471 9.94154 11.5473 10.5221 10.494C11.2659 9.13197 12.0822 8.3874 13.4429 7.7881C15.257 6.98905 15.511 6.84377 17.2526 5.55437C19.0486 4.22868 20.9897 3.33882 22.7313 3.01193C24.0012 2.79401 26.3596 2.92113 27.7746 3.28434ZM68.4116 3.28434C70.0988 3.72018 75.0695 6.06287 76.1217 6.9164C77.9178 8.38739 78.9337 10.1853 79.3328 12.5824C79.6231 14.3077 79.2965 15.9058 78.0266 18.8659C77.0651 21.0815 76.9381 21.5355 76.9381 22.5525C76.9381 23.5695 77.0107 23.7874 77.3917 24.1687C77.7726 24.5683 77.9903 24.6227 79.1151 24.6227C80.2399 24.6227 80.4576 24.6772 80.8385 25.0768C81.4372 25.6579 81.4372 26.4933 80.8385 27.0744C80.4576 27.4739 80.2399 27.5284 79.1332 27.5284C77.4098 27.5284 77.0651 27.8371 76.6841 29.7984C76.2669 31.9777 75.1784 34.0117 73.6001 35.6098C72.8926 36.3362 71.8404 37.1897 71.2598 37.5166C69.6634 38.4065 69.6815 38.3701 69.6815 42.1656C69.6815 45.0531 69.7178 45.5071 70.0081 45.834C70.1895 46.052 73.4005 47.5048 77.6094 49.2482C82.1085 51.1187 85.1381 52.4807 85.5553 52.8076C85.9 53.1163 86.3898 53.6975 86.6076 54.097C87.0067 54.8597 87.0067 54.9324 87.0611 64.4302L87.1155 74.0189H82.7434H78.3894V72.8566C78.3894 70.0236 76.7748 67.354 74.2713 66.0465C74.0536 65.9375 69.1554 64.5392 63.3864 62.9411C57.6174 61.3248 52.7555 59.9809 52.5922 59.9265C52.302 59.8357 52.2657 59.5814 52.2657 57.9651V56.0946L53.2635 55.4227C54.6241 54.4784 56.6015 52.3536 57.4904 50.8645C57.8895 50.1744 58.4519 48.9031 58.7422 48.0314L59.2502 46.4152H60.4112C62.1347 46.4152 62.9329 46.1064 63.9669 45.0531C65.8174 43.2189 65.8174 40.8944 63.9669 39.0602C62.9692 38.0432 62.1165 37.6982 60.6289 37.6982C60.1209 37.6982 59.7037 37.6619 59.7037 37.6256C59.7037 37.5892 60.0847 36.6631 60.5382 35.5734C61.5723 33.1944 61.8444 32.2138 61.9895 30.4341C62.2254 27.2923 60.901 23.8237 58.5245 21.4447C57.309 20.2279 56.9099 19.9737 54.4608 18.7751L51.7396 17.4494L51.1409 16.1782C50.5967 15.0341 50.5422 14.7435 50.5422 13.2725C50.5422 11.7652 50.5785 11.5473 51.159 10.494C51.9028 9.13197 52.7192 8.3874 54.0798 7.7881C55.894 6.98905 56.148 6.84377 57.8895 5.55437C59.6856 4.22868 61.6267 3.33882 63.3683 3.01193C64.6382 2.79401 66.9966 2.92113 68.4116 3.28434ZM48.1294 19.2654C49.7259 19.6831 54.7873 22.0803 55.8033 22.8975C58.9055 25.44 59.9758 29.7621 58.3612 33.2671L57.944 34.1569L57.1095 32.4862C55.8396 29.98 55.4404 29.8892 53.082 31.6326C50.0524 33.8664 48.5285 34.5201 45.8436 34.7199C42.7958 34.956 40.2923 34.1206 37.2445 31.8687C34.5233 29.8529 34.1786 29.9074 32.8543 32.5951C32.4189 33.5032 32.0016 34.2477 31.9472 34.2477C31.8746 34.2477 31.4574 33.485 31.022 32.5588C30.26 30.9607 30.2237 30.8154 30.2237 29.2536C30.2237 27.7463 30.26 27.5284 30.8406 26.4751C31.5662 25.1312 32.3644 24.3867 33.7613 23.7329C34.5959 23.3334 35.0131 23.2607 36.3012 23.2607C37.6436 23.2607 38.0065 23.3334 39.0224 23.8237C40.2197 24.3867 41.1087 25.1131 41.9432 26.239L42.3967 26.8565L43.5215 26.0937C44.1383 25.676 44.6462 25.2584 44.6462 25.1857C44.6462 24.9133 43.2856 23.2607 42.4874 22.5888C41.6348 21.8624 39.7662 20.8091 39.3126 20.8091C38.5507 20.8091 39.2038 20.3006 40.7095 19.7013C42.8865 18.8114 45.7892 18.648 48.1294 19.2654ZM37.0268 35.2465C39.6392 36.9718 41.7617 37.5892 45.0091 37.5892C48.2564 37.5892 50.379 36.9718 52.9913 35.2465C53.8258 34.7017 54.5515 34.2477 54.6241 34.2477C54.6785 34.2477 55.1683 35.1376 55.6944 36.209L56.6559 38.1704L56.5834 41.9659C56.5108 45.5253 56.4745 45.8704 56.0391 47.1053C55.3679 48.9939 54.5334 50.3015 53.1728 51.6817C51.794 53.0437 50.4878 53.8791 48.6011 54.551C47.4582 54.9505 46.9865 55.0232 45.0998 55.0413C43.3401 55.0413 42.687 54.9687 41.6529 54.6418C38.6958 53.6975 36.0472 51.4637 34.7047 48.776C33.6343 46.6331 33.3985 45.3437 33.3985 41.3848V38.0614L34.3419 36.1546C34.868 35.1013 35.3397 34.2477 35.3941 34.2477C35.4666 34.2477 36.1923 34.7017 37.0268 35.2465ZM30.4959 42.0567V43.5095H29.4981C28.2826 43.5095 27.5932 42.9829 27.5932 42.0567C27.5932 41.1305 28.2826 40.6039 29.4981 40.6039H30.4959V42.0567ZM61.9714 41.0579C62.2616 41.3303 62.4249 41.7116 62.4249 42.0567C62.4249 42.9829 61.7355 43.5095 60.5201 43.5095H59.5223V42.0567V40.6039H60.5201C61.3546 40.6039 61.6086 40.6765 61.9714 41.0579ZM45.0091 57.9107C46.6418 57.9107 47.7847 57.8199 48.4197 57.6383L49.363 57.3659V58.8368V60.3078L47.1861 62.4871L45.0091 64.6663L42.8321 62.4871L40.6551 60.3078V58.8368V57.3659L41.6166 57.6383C42.2334 57.8199 43.3763 57.9107 45.0091 57.9107ZM41.5622 65.3927C44.102 67.8989 44.4648 68.2076 45.0091 68.2076C45.5533 68.2076 45.9161 67.8989 48.456 65.3927L51.286 62.5779L62.0621 65.5743C73.5094 68.7524 73.8178 68.8795 74.7067 70.1871C74.9426 70.5321 75.1965 71.0951 75.3054 71.4583C75.4142 71.8397 75.4868 75.1448 75.4868 79.5941V87.0943H71.1328H66.7789V81.283V75.4717H65.3276H63.8762V81.283V87.0943H45.0091H26.1419V81.283V75.4717H24.6906H23.2393V81.283V87.0943H18.8853H14.5313V79.5941C14.5313 75.1448 14.6039 71.8397 14.7128 71.4583C14.8216 71.0951 15.0756 70.5321 15.3114 70.1871C16.1822 68.8795 16.5269 68.7524 27.8654 65.5925C33.7613 63.9399 38.6051 62.596 38.6595 62.596C38.6958 62.5779 40.002 63.8491 41.5622 65.3927Z" fill="#FEC83F"/>
</svg>
