<svg width="25" height="32" viewBox="0 0 25 32" fill="none" xmlns="http://www.w3.org/2000/svg">
<path d="M23.3757 0.265909C24.5928 0.76758 25.1496 1.83496 24.7612 2.92369C24.6187 3.31863 24.3857 3.59615 23.8807 4.00175C23.5052 4.30062 19.569 7.09717 15.1278 10.2246C10.6995 13.352 7.07404 15.9351 7.08699 15.9778C7.08699 16.0205 10.6736 18.5715 15.0501 21.6563C25.1108 28.733 24.6317 28.3701 24.8777 29.0533C25.5769 30.9852 23.1427 32.6717 21.0192 31.7324C20.2552 31.3908 0.962532 17.7497 0.522297 17.2373C-0.306383 16.2767 -0.138058 15.1452 0.949583 14.27C1.28624 14.0031 5.89576 10.7369 11.1786 7.01177C18.3777 1.93103 20.9026 0.21254 21.2911 0.116476C22.068 -0.0756531 22.6247 -0.032959 23.3757 0.265909Z" fill="#FEC83F"/>
</svg>
