<svg width="40" height="40" viewBox="0 0 40 40" fill="none" xmlns="http://www.w3.org/2000/svg">
<path d="M19.7337 8.21085C17.8227 8.38844 16.1614 9.1612 14.8362 10.4859C12.7283 12.593 11.9649 16.2024 12.9684 19.3127C13.3189 20.4022 13.4294 20.575 16.9968 25.7203C18.8214 28.3602 20.3339 30.5345 20.3531 30.5585C20.3723 30.5777 21.8895 28.4274 23.7237 25.7827C26.2012 22.2069 27.1231 20.8342 27.32 20.4406C28.6404 17.8151 28.5107 14.3833 26.9935 11.8491C26.1004 10.3611 24.6024 9.1708 22.9074 8.60923C21.8463 8.25405 20.7228 8.11486 19.7337 8.21085ZM21.0829 9.04121C23.4548 9.28119 25.481 10.6491 26.5469 12.7322C27.0847 13.7786 27.3584 14.8825 27.4016 16.1784C27.4592 17.8631 27.0751 19.3943 26.2877 20.6182C25.6299 21.6309 20.3867 29.1521 20.3531 29.1185C20.3098 29.0705 15.0138 21.4245 14.6105 20.8246C13.6982 19.4663 13.2997 17.9879 13.3621 16.1736C13.4053 14.8969 13.655 13.8458 14.164 12.833C15.4556 10.2411 18.178 8.74842 21.0829 9.04121Z" fill="#FEC83F"/>
<path d="M20.1175 13.1207C18.946 13.2743 18.0289 14.0614 17.688 15.2086C17.6304 15.4054 17.6016 15.6502 17.6016 15.9765C17.6064 16.3845 17.6256 16.5189 17.7456 16.8645C18.0097 17.6133 18.4994 18.1844 19.1812 18.5156C20.0071 18.9284 20.9002 18.9284 21.726 18.5156C22.4078 18.1844 22.8976 17.6133 23.1617 16.8645C23.2817 16.5189 23.3009 16.3845 23.3057 15.9765C23.3057 15.4198 23.2241 15.0934 22.96 14.5894C22.4414 13.5959 21.2363 12.9719 20.1175 13.1207ZM21.049 14.0087C21.9949 14.2966 22.6047 15.2614 22.4702 16.2549C22.3502 17.1093 21.63 17.8292 20.7465 17.9732C19.9015 18.1076 18.9844 17.6181 18.6195 16.8309C18.1009 15.7318 18.6531 14.4166 19.7958 14.0278C20.1079 13.9223 20.7273 13.9127 21.049 14.0087Z" fill="#FEC83F"/>
<path d="M15.1963 25.8262C12.7524 26.1526 10.5533 26.8294 9.34333 27.6357C8.11896 28.4517 7.84048 29.4308 8.61351 30.2228C9.85229 31.4995 12.8628 32.3347 17.429 32.6659C18.5381 32.7474 22.3697 32.7474 23.4788 32.6659C28.045 32.3347 31.0555 31.4995 32.2943 30.2228C32.7409 29.762 32.8513 29.1908 32.5824 28.6773C31.9966 27.5493 29.8696 26.5558 26.8879 26.0134C25.4234 25.7494 25.1401 25.7494 25.0201 26.0134C24.9385 26.2006 24.9577 26.3158 25.1017 26.4598C25.217 26.575 25.2986 26.599 25.8315 26.6758C27.8098 26.9494 29.7159 27.5061 30.8587 28.1493C31.3436 28.4229 31.8622 28.9269 31.9054 29.1668C32.0686 30.0212 29.788 30.9955 26.4317 31.5043C24.4151 31.8115 22.9843 31.9075 20.4539 31.9075C17.9235 31.9075 16.4927 31.8115 14.4761 31.5043C11.1199 30.9955 8.83918 30.0212 9.00243 29.1668C9.04564 28.9269 9.5642 28.4229 10.0491 28.1493C11.1919 27.5061 13.0981 26.9494 15.0763 26.6758C15.6092 26.599 15.6909 26.575 15.8109 26.4598C15.9501 26.3158 15.9693 26.2006 15.8877 26.0182C15.7965 25.8214 15.614 25.7686 15.1963 25.8262Z" fill="#FEC83F"/>
<path fill-rule="evenodd" clip-rule="evenodd" d="M20 39.0698C30.5319 39.0698 39.0698 30.5319 39.0698 20C39.0698 9.46806 30.5319 0.930233 20 0.930233C9.46806 0.930233 0.930233 9.46806 0.930233 20C0.930233 30.5319 9.46806 39.0698 20 39.0698ZM20 40C31.0457 40 40 31.0457 40 20C40 8.95431 31.0457 0 20 0C8.95431 0 0 8.95431 0 20C0 31.0457 8.95431 40 20 40Z" fill="#FEC83F"/>
</svg>
