<svg width="40" height="40" viewBox="0 0 40 40" fill="none" xmlns="http://www.w3.org/2000/svg">
<path fill-rule="evenodd" clip-rule="evenodd" d="M20 39.0698C30.5319 39.0698 39.0698 30.5319 39.0698 20C39.0698 9.46806 30.5319 0.930233 20 0.930233C9.46806 0.930233 0.930233 9.46806 0.930233 20C0.930233 30.5319 9.46806 39.0698 20 39.0698ZM20 40C31.0457 40 40 31.0457 40 20C40 8.95431 31.0457 0 20 0C8.95431 0 0 8.95431 0 20C0 31.0457 8.95431 40 20 40Z" fill="#FEC83F"/>
<path d="M19.0223 9.11698C16.9124 9.32187 14.9647 10.0987 13.2563 11.4134C12.4234 12.0537 11.3428 13.2574 10.7192 14.2392C10.4501 14.6618 9.92477 15.7374 9.73683 16.2496C9.52755 16.8216 9.30118 17.7009 9.19012 18.3796C9.05772 19.212 9.05772 20.7913 9.19012 21.6237C9.38233 22.8018 9.68558 23.7494 10.2024 24.8037C10.7662 25.9519 11.3513 26.7672 12.291 27.7105C13.2349 28.6496 14.0507 29.2344 15.1997 29.7978C16.2546 30.3143 17.2028 30.6174 18.3817 30.8094C19.2146 30.9418 20.7949 30.9418 21.6278 30.8094C22.8066 30.6174 23.7548 30.3143 24.8098 29.7978C25.9587 29.2344 26.7745 28.6496 27.7184 27.7105C28.6581 26.7672 29.2432 25.9519 29.807 24.8037C30.1829 24.0396 30.3708 23.5402 30.5758 22.7719C30.8449 21.7474 30.909 21.1883 30.909 20.0016C30.909 18.815 30.8449 18.2558 30.5758 17.2314C30.3708 16.4631 30.1829 15.9636 29.807 15.1996C29.2432 14.0514 28.6581 13.2361 27.7184 12.2927C26.7745 11.3537 25.9587 10.7689 24.8098 10.2054C23.7591 9.68896 22.7852 9.38163 21.6491 9.20235C21.0213 9.10418 19.6203 9.05722 19.0223 9.11698ZM21.0213 10.8286C23.1056 11.0549 25.0105 11.9811 26.5225 13.4879C28.295 15.2593 29.2304 17.5131 29.2304 20.0016C29.2304 22.4902 28.295 24.7439 26.5225 26.5153C24.75 28.2868 22.4948 29.2216 20.0047 29.2216C17.5146 29.2216 15.2595 28.2868 13.4869 26.5153C11.7144 24.7439 10.779 22.4902 10.779 20.0016C10.779 17.5131 11.7144 15.2593 13.4869 13.4879C14.9776 11.9982 16.9038 11.0591 18.9369 10.8286C19.4068 10.7774 20.5429 10.7732 21.0213 10.8286Z" fill="#FEC83F"/>
<path d="M19.6377 14.2348C19.4327 14.3287 19.2661 14.5336 19.1935 14.7726C19.1593 14.8964 19.1508 15.6904 19.1593 17.6112C19.1721 20.2107 19.1764 20.2832 19.2618 20.4497C19.3302 20.5863 19.6719 20.868 21.0557 21.9138C21.9911 22.6266 22.8453 23.2584 22.9521 23.3224C23.6654 23.7493 24.5068 22.9852 24.1481 22.2425C24.0626 22.0632 23.8875 21.9223 22.4567 20.8467L20.8593 19.6515V17.2697C20.8593 15.605 20.8464 14.8495 20.8123 14.747C20.6884 14.3842 20.3766 14.1537 20.005 14.1537C19.8982 14.1537 19.7317 14.1921 19.6377 14.2348Z" fill="#FEC83F"/>
</svg>
