<svg width="40" height="40" viewBox="0 0 40 40" fill="none" xmlns="http://www.w3.org/2000/svg">
<path fill-rule="evenodd" clip-rule="evenodd" d="M20 39.0698C30.5319 39.0698 39.0698 30.5319 39.0698 20C39.0698 9.46806 30.5319 0.930233 20 0.930233C9.46806 0.930233 0.930233 9.46806 0.930233 20C0.930233 30.5319 9.46806 39.0698 20 39.0698ZM20 40C31.0457 40 40 31.0457 40 20C40 8.95431 31.0457 0 20 0C8.95431 0 0 8.95431 0 20C0 31.0457 8.95431 40 20 40Z" fill="#FEC83F"/>
<path d="M19.3333 7.47516C18.1539 7.59457 17.0213 7.8905 15.9178 8.37334C13.7226 9.33382 12.0879 10.7927 11.0428 12.7292C9.13951 16.2389 9.81676 20.0133 13.2789 25.174C14.2656 26.6432 15.1822 27.8581 17.4942 30.7551C18.2649 31.726 19.1231 32.8111 19.4033 33.1693C19.9288 33.8494 20.1273 34 20.5009 34C20.8746 34 21.0731 33.8494 21.5986 33.1693C21.8788 32.8111 22.737 31.726 23.5077 30.7551C25.773 27.9204 26.7713 26.5965 27.7347 25.1532C30.8465 20.4962 31.6697 17.1059 30.4787 13.8299C30.2568 13.2225 29.6555 12.1374 29.2059 11.5455C27.0574 8.69004 23.1749 7.09097 19.3333 7.47516ZM22.2233 9.13134C26.1992 9.87377 29.0541 12.8383 29.241 16.4258C29.3344 18.1547 28.7505 20.0652 27.3902 22.4742C26.3218 24.3692 25.1424 26.015 22.0189 29.94C21.2015 30.9732 20.5185 31.8143 20.5009 31.8143C20.4834 31.8143 20.32 31.6222 20.139 31.3885C19.958 31.1549 19.2399 30.2515 18.5451 29.3793C17.1672 27.6556 15.7952 25.8541 15.1472 24.9144C12.7243 21.4047 11.6383 18.6894 11.7609 16.4258C11.9127 13.5859 13.7109 11.1146 16.5893 9.81147C17.465 9.4117 18.405 9.1573 19.45 9.02751C20.0689 8.94963 21.5577 9.00674 22.2233 9.13134Z" fill="#FEC83F"/>
<path d="M19.4499 12.1898C17.4707 12.574 15.941 13.8667 15.4156 15.5956C15.3105 15.9331 15.2871 16.1511 15.2871 16.7638C15.2871 17.3764 15.3105 17.5944 15.4156 17.9319C15.9293 19.6141 17.4006 20.8912 19.3156 21.317C19.9169 21.4519 21.2014 21.4364 21.8144 21.2858C23.6651 20.8445 25.0839 19.5777 25.586 17.9319C25.6911 17.5944 25.7144 17.3764 25.7144 16.7638C25.7144 16.1511 25.6911 15.9331 25.586 15.5956C25.0839 13.9446 23.6476 12.6674 21.8144 12.2417C21.1371 12.086 20.0979 12.06 19.4499 12.1898ZM21.3415 13.7525C22.0012 13.9031 22.4508 14.1315 22.9529 14.5832C23.4608 15.0297 23.7177 15.4295 23.887 16.0161C24.0972 16.7482 23.9863 17.5477 23.5834 18.233C23.3265 18.6588 22.6201 19.287 22.153 19.505C21.3765 19.8685 20.4832 19.9619 19.66 19.775C19.012 19.6296 18.5566 19.396 18.0487 18.9443C17.5407 18.4978 17.2838 18.1032 17.1145 17.5114C16.9043 16.7793 17.0094 15.985 17.4181 15.2945C17.6633 14.8791 18.3698 14.2509 18.8485 14.0225C19.6192 13.6591 20.5183 13.5656 21.3415 13.7525Z" fill="#FEC83F"/>
</svg>
