<svg width="40" height="40" viewBox="0 0 40 40" fill="none" xmlns="http://www.w3.org/2000/svg">
<path fill-rule="evenodd" clip-rule="evenodd" d="M20 39.0698C30.5319 39.0698 39.0698 30.5319 39.0698 20C39.0698 9.46806 30.5319 0.930233 20 0.930233C9.46806 0.930233 0.930233 9.46806 0.930233 20C0.930233 30.5319 9.46806 39.0698 20 39.0698ZM20 40C31.0457 40 40 31.0457 40 20C40 8.95431 31.0457 0 20 0C8.95431 0 0 8.95431 0 20C0 31.0457 8.95431 40 20 40Z" fill="#FEC83F"/>
<path d="M29.369 11.8619C30.1018 12.0125 30.7238 12.6681 30.8644 13.4477C30.9241 13.7755 30.9241 27.1263 30.8644 27.4541C30.7196 28.2514 30.1018 28.8937 29.3349 29.0443C29.0196 29.1063 10.9805 29.1063 10.6653 29.0443C9.89837 28.8937 9.28059 28.2514 9.13573 27.4541C9.07609 27.1263 9.07609 13.7755 9.13573 13.4477C9.28059 12.6504 9.89837 12.0081 10.6653 11.8575C10.9507 11.8043 29.0921 11.8043 29.369 11.8619ZM15.6203 17.647L19.9532 22.1519L20.5625 21.545C20.8991 21.2084 22.8674 19.184 24.9423 17.0401L28.7129 13.1465L20.0001 13.1421H11.2873L15.6203 17.647ZM26.3738 17.4299L23.4852 20.4199L26.557 23.6136L29.6289 26.8074V20.4553V14.1077L29.4457 14.276C29.3477 14.3646 27.9673 15.7865 26.3738 17.4299ZM10.3713 20.4598V26.8074L13.4261 23.6313L16.4852 20.4509L13.4389 17.2837C11.7645 15.5429 10.3883 14.1166 10.3841 14.1166C10.3755 14.1166 10.3713 16.9737 10.3713 20.4598ZM21.47 22.4929C20.882 23.1042 20.3324 23.6402 20.2472 23.6889C20.0555 23.7908 19.868 23.7952 19.6891 23.7022C19.6124 23.6624 19.067 23.1308 18.4748 22.5195L17.4012 21.4033L14.3421 24.5837L11.2873 27.7597H20.0001H28.7129L25.6453 24.5704C23.9581 22.8163 22.5692 21.3811 22.5564 21.3811C22.5436 21.3811 22.0537 21.8817 21.47 22.4929Z" fill="#FEC83F"/>
</svg>
