<svg width="20" height="20" viewBox="0 0 50 50" fill="none" xmlns="http://www.w3.org/2000/svg">
<path d="M65.5692 8.86508C65.3502 8.91983 65.008 9.04303 64.8164 9.15253C64.6247 9.24835 57.3016 16.4894 48.5276 25.2498L32.581 41.1555L28.6114 36.8437C21.2609 28.8362 20.8777 28.4392 20.2206 28.1517C18.975 27.5905 17.4967 28.1107 16.9218 29.3016C16.5522 30.0681 16.5522 31.04 16.8944 31.7107C17.1271 32.1624 21.0693 36.5015 28.5156 44.5228C31.0068 47.2057 31.527 47.6164 32.5125 47.6164C33.6623 47.6164 33.4433 47.8217 51.2926 29.9996C69.7441 11.5753 68.9091 12.4788 68.7585 11.1373C68.5806 9.63162 66.9928 8.50919 65.5692 8.86508Z" fill="#FEC83F"/>
</svg>
