<svg width="20" height="20" viewBox="0 0 70 70" fill="none" xmlns="http://www.w3.org/2000/svg">
<path d="M31.8282 0.118362C25.2305 0.706955 18.8245 3.26665 13.3493 7.48261C10.6801 9.53584 7.21703 13.3959 5.21858 16.5442C4.35623 17.8993 2.6726 21.3487 2.07032 22.9913C1.39961 24.8256 0.674137 27.6453 0.318248 29.8217C-0.106083 32.4909 -0.106083 37.5556 0.318248 40.2248C0.934211 44.0027 1.90606 47.0415 3.56232 50.4225C5.36914 54.1046 7.24441 56.719 10.2558 59.7441C13.2808 62.7555 15.8953 64.6308 19.5774 66.4376C22.9583 68.0939 25.9971 69.0658 29.775 69.6817C32.4441 70.1061 37.5087 70.1061 40.1779 69.6817C42.3543 69.3259 45.174 68.6004 47.0083 67.9297C48.6508 67.3274 52.1002 65.6437 53.4553 64.7814C57.8492 61.989 61.9419 57.8962 64.7343 53.5023C65.5966 52.1472 67.2803 48.6978 67.8826 47.0552C69.0187 43.9343 69.7989 40.1016 69.9631 36.6658C70.0726 34.5579 69.9631 34.0514 69.2924 33.2849C67.8962 31.697 65.3092 32.3951 64.8301 34.4757C64.748 34.8179 64.6796 35.5571 64.6796 36.1457C64.6796 37.7061 64.2963 40.3343 63.7898 42.3601C61.1754 52.8042 52.7572 61.2224 42.3132 63.8369C37.5361 65.0415 32.3346 65.0278 27.5849 63.8232C15.8679 60.8255 7.03909 50.8605 5.49234 38.8833C5.21858 36.7206 5.21858 33.3259 5.49234 31.1632C7.0254 19.1997 15.8816 9.22101 27.5849 6.2233C29.6381 5.70315 32.2662 5.31988 33.854 5.31988C35.8114 5.30619 36.8106 4.85448 37.3171 3.75942C37.9604 2.34954 37.4129 0.89859 36.003 0.241554C35.4008 -0.0322037 34.032 -0.0732727 31.8282 0.118362Z" fill="#FEC83F"/>
<path d="M65.5692 8.86508C65.3502 8.91983 65.008 9.04303 64.8164 9.15253C64.6247 9.24835 57.3016 16.4894 48.5276 25.2498L32.581 41.1555L28.6114 36.8437C21.2609 28.8362 20.8777 28.4392 20.2206 28.1517C18.975 27.5905 17.4967 28.1107 16.9218 29.3016C16.5522 30.0681 16.5522 31.04 16.8944 31.7107C17.1271 32.1624 21.0693 36.5015 28.5156 44.5228C31.0068 47.2057 31.527 47.6164 32.5125 47.6164C33.6623 47.6164 33.4433 47.8217 51.2926 29.9996C69.7441 11.5753 68.9091 12.4788 68.7585 11.1373C68.5806 9.63162 66.9928 8.50919 65.5692 8.86508Z" fill="#FEC83F"/>
</svg>
