<svg width="60" height="60" viewBox="0 0 60 60" fill="none" xmlns="http://www.w3.org/2000/svg">
<circle cx="30" cy="30" r="29.5" fill="#00072C" stroke="#FEC83F"/>
<path d="M6.91348 41V39.86C7.29348 39.64 7.69348 39.45 8.11348 39.29C8.55348 39.13 8.97348 39.03 9.37348 38.99V22.01C8.97348 21.93 8.55348 21.82 8.11348 21.68C7.67348 21.52 7.27348 21.34 6.91348 21.14V20H11.7435C12.5035 20 13.2235 19.97 13.9035 19.91C14.5835 19.85 15.3635 19.82 16.2435 19.82C17.2035 19.82 18.1335 19.89 19.0335 20.03C19.9335 20.17 20.7335 20.42 21.4335 20.78C22.1335 21.14 22.6935 21.65 23.1135 22.31C23.5335 22.95 23.7435 23.78 23.7435 24.8C23.7435 25.44 23.6235 26.04 23.3835 26.6C23.1635 27.14 22.8435 27.62 22.4235 28.04C22.0235 28.46 21.5435 28.81 20.9835 29.09C20.4435 29.37 19.8535 29.57 19.2135 29.69V29.81C19.8535 29.89 20.4935 30.04 21.1335 30.26C21.7935 30.48 22.3835 30.8 22.9035 31.22C23.4235 31.64 23.8435 32.17 24.1635 32.81C24.5035 33.43 24.6735 34.17 24.6735 35.03C24.6735 36.11 24.4335 37.04 23.9535 37.82C23.4735 38.6 22.8235 39.24 22.0035 39.74C21.2035 40.24 20.2835 40.61 19.2435 40.85C18.2035 41.07 17.1235 41.18 16.0035 41.18C15.5835 41.18 15.1235 41.17 14.6235 41.15C14.1235 41.13 13.6235 41.11 13.1235 41.09C12.6235 41.07 12.1335 41.05 11.6535 41.03C11.1935 41.01 10.8035 41 10.4835 41H6.91348ZM15.9735 39.23C17.2335 39.23 18.2235 38.86 18.9435 38.12C19.6635 37.36 20.0235 36.36 20.0235 35.12C20.0235 34.36 19.9035 33.74 19.6635 33.26C19.4235 32.76 19.0935 32.37 18.6735 32.09C18.2535 31.79 17.7535 31.59 17.1735 31.49C16.5935 31.37 15.9635 31.31 15.2835 31.31H13.6935V39.02C13.9735 39.08 14.2635 39.13 14.5635 39.17C14.8835 39.21 15.3535 39.23 15.9735 39.23ZM14.6535 29.36C14.9935 29.36 15.3335 29.35 15.6735 29.33C16.0135 29.29 16.3335 29.25 16.6335 29.21C17.4135 28.89 18.0435 28.4 18.5235 27.74C19.0035 27.06 19.2435 26.29 19.2435 25.43C19.2435 24.17 18.9135 23.25 18.2535 22.67C17.5935 22.07 16.7435 21.77 15.7035 21.77C15.2635 21.77 14.8835 21.78 14.5635 21.8C14.2435 21.82 13.9535 21.85 13.6935 21.89V29.36H14.6535ZM53.0659 41H44.0959V39.86C44.4959 39.66 44.8859 39.49 45.2659 39.35C45.6459 39.21 46.0559 39.09 46.4959 38.99V26.45L46.6459 22.94H46.4059L45.4159 26.15L39.6259 41H38.2459L32.4859 26.27L31.4059 22.76H31.1359L31.1659 26.57V38.87C31.5459 38.95 31.9659 39.08 32.4259 39.26C32.8859 39.44 33.3159 39.64 33.7159 39.86V41H26.3959V39.86C26.7159 39.7 27.1059 39.51 27.5659 39.29C28.0459 39.07 28.4959 38.92 28.9159 38.84V22.01C28.5159 21.93 28.0859 21.82 27.6259 21.68C27.1859 21.54 26.7959 21.36 26.4559 21.14V20H34.5859L39.1759 32.21L40.0459 35.09H40.0759L40.9759 32.15L45.6559 20H53.0959V21.14C52.7559 21.34 52.3859 21.52 51.9859 21.68C51.6059 21.82 51.2159 21.93 50.8159 22.01V39.02C51.2359 39.1 51.6359 39.22 52.0159 39.38C52.4159 39.54 52.7659 39.7 53.0659 39.86V41Z" fill="#FEC83F"/>
</svg>
