<svg width="40" height="40" viewBox="0 0 40 40" fill="none" xmlns="http://www.w3.org/2000/svg">
<path d="M29.5868 24.6941V27.6486C29.5879 27.9229 29.5317 28.1943 29.4218 28.4456C29.3119 28.697 29.1508 28.9225 28.9486 29.108C28.7465 29.2934 28.508 29.4346 28.2481 29.5224C27.9883 29.6103 27.713 29.643 27.4398 29.6183C24.4093 29.289 21.4982 28.2534 18.9405 26.5948C16.561 25.0827 14.5436 23.0653 13.0315 20.6857C11.3671 18.1164 10.3313 15.1912 10.008 12.1471C9.98338 11.8747 10.0158 11.6002 10.103 11.3411C10.1903 11.0819 10.3306 10.8438 10.515 10.6418C10.6993 10.4399 10.9237 10.2785 11.1738 10.168C11.424 10.0576 11.6944 10.0004 11.9678 10.0001H14.9224C15.4003 9.99539 15.8637 10.1646 16.2261 10.4763C16.5885 10.788 16.8252 11.2208 16.8921 11.694C17.0168 12.6396 17.2481 13.5679 17.5815 14.4615C17.714 14.814 17.7427 15.1971 17.6641 15.5654C17.5856 15.9337 17.4031 16.2717 17.1383 16.5395L15.8875 17.7903C17.2895 20.2559 19.331 22.2973 21.7966 23.6993L23.0474 22.4486C23.3152 22.1838 23.6532 22.0014 24.0215 21.9228C24.3898 21.8443 24.7729 21.8729 25.1255 22.0054C26.0189 22.3388 26.9474 22.5701 27.8928 22.6948C28.3713 22.7623 28.8082 23.0033 29.1205 23.3719C29.4328 23.7405 29.5987 24.2111 29.5868 24.6941Z" stroke="#FEC83F" stroke-width="1.6" stroke-linecap="round" stroke-linejoin="round"/>
<path fill-rule="evenodd" clip-rule="evenodd" d="M20 39.0698C30.5319 39.0698 39.0698 30.5319 39.0698 20C39.0698 9.46806 30.5319 0.930233 20 0.930233C9.46806 0.930233 0.930233 9.46806 0.930233 20C0.930233 30.5319 9.46806 39.0698 20 39.0698ZM20 40C31.0457 40 40 31.0457 40 20C40 8.95431 31.0457 0 20 0C8.95431 0 0 8.95431 0 20C0 31.0457 8.95431 40 20 40Z" fill="#FEC83F"/>
</svg>
